<mxfile host="app.diagrams.net" agent="Mozilla/5.0 (Windows NT 10.0; Win64; x64) AppleWebKit/537.36 (KHTML, like Gecko) Chrome/127.0.0.0 Safari/537.36 Edg/127.0.0.0" version="24.7.6">
  <diagram name="Página-1" id="hdt4SwTaabaoey-feYUU">
    <mxGraphModel dx="979" dy="554" grid="1" gridSize="10" guides="1" tooltips="1" connect="1" arrows="1" fold="1" page="1" pageScale="1" pageWidth="827" pageHeight="1169" math="0" shadow="0">
      <root>
        <mxCell id="0" />
        <mxCell id="1" parent="0" />
        <mxCell id="6FnOU0rwbtTwVomRZq-C-1" value="" style="rounded=0;whiteSpace=wrap;html=1;" vertex="1" parent="1">
          <mxGeometry x="250" y="130" width="120" height="60" as="geometry" />
        </mxCell>
        <mxCell id="6FnOU0rwbtTwVomRZq-C-7" value="" style="endArrow=classic;startArrow=classic;html=1;rounded=0;" edge="1" parent="1">
          <mxGeometry width="50" height="50" relative="1" as="geometry">
            <mxPoint x="150" y="130" as="sourcePoint" />
            <mxPoint x="220" y="130" as="targetPoint" />
          </mxGeometry>
        </mxCell>
        <mxCell id="6FnOU0rwbtTwVomRZq-C-8" value="" style="endArrow=classic;startArrow=classic;html=1;rounded=0;" edge="1" parent="1">
          <mxGeometry width="50" height="50" relative="1" as="geometry">
            <mxPoint x="150" y="150" as="sourcePoint" />
            <mxPoint x="220" y="150" as="targetPoint" />
          </mxGeometry>
        </mxCell>
        <mxCell id="6FnOU0rwbtTwVomRZq-C-9" value="" style="endArrow=classic;startArrow=classic;html=1;rounded=0;" edge="1" parent="1">
          <mxGeometry width="50" height="50" relative="1" as="geometry">
            <mxPoint x="150" y="169.5" as="sourcePoint" />
            <mxPoint x="220" y="169.5" as="targetPoint" />
          </mxGeometry>
        </mxCell>
        <mxCell id="6FnOU0rwbtTwVomRZq-C-10" value="" style="endArrow=classic;startArrow=classic;html=1;rounded=0;" edge="1" parent="1">
          <mxGeometry width="50" height="50" relative="1" as="geometry">
            <mxPoint x="150" y="190" as="sourcePoint" />
            <mxPoint x="220" y="190" as="targetPoint" />
          </mxGeometry>
        </mxCell>
        <mxCell id="6FnOU0rwbtTwVomRZq-C-12" value="" style="strokeWidth=2;html=1;shape=mxgraph.flowchart.annotation_2;align=left;labelPosition=right;pointerEvents=1;" vertex="1" parent="1">
          <mxGeometry x="220" y="130" width="30" height="60" as="geometry" />
        </mxCell>
        <mxCell id="6FnOU0rwbtTwVomRZq-C-15" value="ID_Denuncia" style="text;html=1;align=center;verticalAlign=middle;whiteSpace=wrap;rounded=0;" vertex="1" parent="1">
          <mxGeometry x="80" y="110" width="60" height="30" as="geometry" />
        </mxCell>
        <mxCell id="6FnOU0rwbtTwVomRZq-C-16" value="Data" style="text;html=1;align=center;verticalAlign=middle;whiteSpace=wrap;rounded=0;" vertex="1" parent="1">
          <mxGeometry x="100" y="130" width="60" height="30" as="geometry" />
        </mxCell>
        <mxCell id="6FnOU0rwbtTwVomRZq-C-17" value="Descrição" style="text;html=1;align=center;verticalAlign=middle;whiteSpace=wrap;rounded=0;" vertex="1" parent="1">
          <mxGeometry x="90" y="150" width="60" height="30" as="geometry" />
        </mxCell>
        <mxCell id="6FnOU0rwbtTwVomRZq-C-18" value="Status" style="text;html=1;align=center;verticalAlign=middle;whiteSpace=wrap;rounded=0;" vertex="1" parent="1">
          <mxGeometry x="90" y="170" width="60" height="30" as="geometry" />
        </mxCell>
        <mxCell id="6FnOU0rwbtTwVomRZq-C-19" value="Denúncia" style="text;html=1;align=center;verticalAlign=middle;whiteSpace=wrap;rounded=0;" vertex="1" parent="1">
          <mxGeometry x="280" y="145" width="60" height="30" as="geometry" />
        </mxCell>
        <mxCell id="6FnOU0rwbtTwVomRZq-C-20" value="" style="rounded=0;whiteSpace=wrap;html=1;" vertex="1" parent="1">
          <mxGeometry x="250" y="280" width="120" height="60" as="geometry" />
        </mxCell>
        <mxCell id="6FnOU0rwbtTwVomRZq-C-21" value="" style="endArrow=classic;startArrow=classic;html=1;rounded=0;" edge="1" parent="1">
          <mxGeometry width="50" height="50" relative="1" as="geometry">
            <mxPoint x="150" y="280" as="sourcePoint" />
            <mxPoint x="220" y="280" as="targetPoint" />
          </mxGeometry>
        </mxCell>
        <mxCell id="6FnOU0rwbtTwVomRZq-C-22" value="" style="endArrow=classic;startArrow=classic;html=1;rounded=0;" edge="1" parent="1">
          <mxGeometry width="50" height="50" relative="1" as="geometry">
            <mxPoint x="150" y="300" as="sourcePoint" />
            <mxPoint x="220" y="300" as="targetPoint" />
          </mxGeometry>
        </mxCell>
        <mxCell id="6FnOU0rwbtTwVomRZq-C-23" value="" style="endArrow=classic;startArrow=classic;html=1;rounded=0;" edge="1" parent="1">
          <mxGeometry width="50" height="50" relative="1" as="geometry">
            <mxPoint x="150" y="319.5" as="sourcePoint" />
            <mxPoint x="220" y="319.5" as="targetPoint" />
          </mxGeometry>
        </mxCell>
        <mxCell id="6FnOU0rwbtTwVomRZq-C-24" value="" style="endArrow=classic;startArrow=classic;html=1;rounded=0;" edge="1" parent="1">
          <mxGeometry width="50" height="50" relative="1" as="geometry">
            <mxPoint x="150" y="340" as="sourcePoint" />
            <mxPoint x="220" y="340" as="targetPoint" />
          </mxGeometry>
        </mxCell>
        <mxCell id="6FnOU0rwbtTwVomRZq-C-25" value="" style="strokeWidth=2;html=1;shape=mxgraph.flowchart.annotation_2;align=left;labelPosition=right;pointerEvents=1;" vertex="1" parent="1">
          <mxGeometry x="220" y="280" width="30" height="60" as="geometry" />
        </mxCell>
        <mxCell id="6FnOU0rwbtTwVomRZq-C-26" value="ID_Denunciante" style="text;html=1;align=center;verticalAlign=middle;whiteSpace=wrap;rounded=0;" vertex="1" parent="1">
          <mxGeometry x="70" y="260" width="60" height="30" as="geometry" />
        </mxCell>
        <mxCell id="6FnOU0rwbtTwVomRZq-C-27" value="Nome" style="text;html=1;align=center;verticalAlign=middle;whiteSpace=wrap;rounded=0;" vertex="1" parent="1">
          <mxGeometry x="100" y="280" width="60" height="30" as="geometry" />
        </mxCell>
        <mxCell id="6FnOU0rwbtTwVomRZq-C-28" value="Email" style="text;html=1;align=center;verticalAlign=middle;whiteSpace=wrap;rounded=0;" vertex="1" parent="1">
          <mxGeometry x="100" y="300" width="60" height="30" as="geometry" />
        </mxCell>
        <mxCell id="6FnOU0rwbtTwVomRZq-C-29" value="Endereço" style="text;html=1;align=center;verticalAlign=middle;whiteSpace=wrap;rounded=0;" vertex="1" parent="1">
          <mxGeometry x="90" y="320" width="60" height="30" as="geometry" />
        </mxCell>
        <mxCell id="6FnOU0rwbtTwVomRZq-C-30" value="Denunciante" style="text;html=1;align=center;verticalAlign=middle;whiteSpace=wrap;rounded=0;" vertex="1" parent="1">
          <mxGeometry x="280" y="295" width="60" height="30" as="geometry" />
        </mxCell>
        <mxCell id="6FnOU0rwbtTwVomRZq-C-31" value="" style="endArrow=classic;startArrow=classic;html=1;rounded=0;" edge="1" parent="1">
          <mxGeometry width="50" height="50" relative="1" as="geometry">
            <mxPoint x="150" y="360" as="sourcePoint" />
            <mxPoint x="220" y="360" as="targetPoint" />
          </mxGeometry>
        </mxCell>
        <mxCell id="6FnOU0rwbtTwVomRZq-C-32" value="Telefone" style="text;html=1;align=center;verticalAlign=middle;whiteSpace=wrap;rounded=0;" vertex="1" parent="1">
          <mxGeometry x="90" y="340" width="60" height="30" as="geometry" />
        </mxCell>
        <mxCell id="6FnOU0rwbtTwVomRZq-C-33" value="" style="rounded=0;whiteSpace=wrap;html=1;" vertex="1" parent="1">
          <mxGeometry x="250" y="430" width="120" height="60" as="geometry" />
        </mxCell>
        <mxCell id="6FnOU0rwbtTwVomRZq-C-34" value="" style="endArrow=classic;startArrow=classic;html=1;rounded=0;" edge="1" parent="1">
          <mxGeometry width="50" height="50" relative="1" as="geometry">
            <mxPoint x="150" y="430" as="sourcePoint" />
            <mxPoint x="220" y="430" as="targetPoint" />
          </mxGeometry>
        </mxCell>
        <mxCell id="6FnOU0rwbtTwVomRZq-C-35" value="" style="endArrow=classic;startArrow=classic;html=1;rounded=0;" edge="1" parent="1">
          <mxGeometry width="50" height="50" relative="1" as="geometry">
            <mxPoint x="150" y="450" as="sourcePoint" />
            <mxPoint x="220" y="450" as="targetPoint" />
          </mxGeometry>
        </mxCell>
        <mxCell id="6FnOU0rwbtTwVomRZq-C-36" value="" style="endArrow=classic;startArrow=classic;html=1;rounded=0;" edge="1" parent="1">
          <mxGeometry width="50" height="50" relative="1" as="geometry">
            <mxPoint x="150" y="469.5" as="sourcePoint" />
            <mxPoint x="220" y="469.5" as="targetPoint" />
          </mxGeometry>
        </mxCell>
        <mxCell id="6FnOU0rwbtTwVomRZq-C-37" value="" style="endArrow=classic;startArrow=classic;html=1;rounded=0;" edge="1" parent="1">
          <mxGeometry width="50" height="50" relative="1" as="geometry">
            <mxPoint x="150" y="490" as="sourcePoint" />
            <mxPoint x="220" y="490" as="targetPoint" />
          </mxGeometry>
        </mxCell>
        <mxCell id="6FnOU0rwbtTwVomRZq-C-38" value="" style="strokeWidth=2;html=1;shape=mxgraph.flowchart.annotation_2;align=left;labelPosition=right;pointerEvents=1;" vertex="1" parent="1">
          <mxGeometry x="220" y="430" width="30" height="60" as="geometry" />
        </mxCell>
        <mxCell id="6FnOU0rwbtTwVomRZq-C-39" value="ID_Suspeito" style="text;html=1;align=center;verticalAlign=middle;whiteSpace=wrap;rounded=0;" vertex="1" parent="1">
          <mxGeometry x="80" y="410" width="60" height="30" as="geometry" />
        </mxCell>
        <mxCell id="6FnOU0rwbtTwVomRZq-C-40" value="Nome" style="text;html=1;align=center;verticalAlign=middle;whiteSpace=wrap;rounded=0;" vertex="1" parent="1">
          <mxGeometry x="100" y="430" width="60" height="30" as="geometry" />
        </mxCell>
        <mxCell id="6FnOU0rwbtTwVomRZq-C-41" value="Email" style="text;html=1;align=center;verticalAlign=middle;whiteSpace=wrap;rounded=0;" vertex="1" parent="1">
          <mxGeometry x="100" y="450" width="60" height="30" as="geometry" />
        </mxCell>
        <mxCell id="6FnOU0rwbtTwVomRZq-C-42" value="Endereço" style="text;html=1;align=center;verticalAlign=middle;whiteSpace=wrap;rounded=0;" vertex="1" parent="1">
          <mxGeometry x="90" y="470" width="60" height="30" as="geometry" />
        </mxCell>
        <mxCell id="6FnOU0rwbtTwVomRZq-C-43" value="Suspeito" style="text;html=1;align=center;verticalAlign=middle;whiteSpace=wrap;rounded=0;" vertex="1" parent="1">
          <mxGeometry x="280" y="445" width="60" height="30" as="geometry" />
        </mxCell>
        <mxCell id="6FnOU0rwbtTwVomRZq-C-44" value="" style="endArrow=classic;startArrow=classic;html=1;rounded=0;" edge="1" parent="1">
          <mxGeometry width="50" height="50" relative="1" as="geometry">
            <mxPoint x="150" y="510" as="sourcePoint" />
            <mxPoint x="220" y="510" as="targetPoint" />
          </mxGeometry>
        </mxCell>
        <mxCell id="6FnOU0rwbtTwVomRZq-C-45" value="Telefone" style="text;html=1;align=center;verticalAlign=middle;whiteSpace=wrap;rounded=0;" vertex="1" parent="1">
          <mxGeometry x="90" y="490" width="60" height="30" as="geometry" />
        </mxCell>
        <mxCell id="6FnOU0rwbtTwVomRZq-C-46" value="" style="rounded=0;whiteSpace=wrap;html=1;" vertex="1" parent="1">
          <mxGeometry x="250" y="590" width="120" height="60" as="geometry" />
        </mxCell>
        <mxCell id="6FnOU0rwbtTwVomRZq-C-47" value="" style="endArrow=classic;startArrow=classic;html=1;rounded=0;" edge="1" parent="1">
          <mxGeometry width="50" height="50" relative="1" as="geometry">
            <mxPoint x="150" y="590" as="sourcePoint" />
            <mxPoint x="220" y="590" as="targetPoint" />
          </mxGeometry>
        </mxCell>
        <mxCell id="6FnOU0rwbtTwVomRZq-C-48" value="" style="endArrow=classic;startArrow=classic;html=1;rounded=0;" edge="1" parent="1">
          <mxGeometry width="50" height="50" relative="1" as="geometry">
            <mxPoint x="150" y="610" as="sourcePoint" />
            <mxPoint x="220" y="610" as="targetPoint" />
          </mxGeometry>
        </mxCell>
        <mxCell id="6FnOU0rwbtTwVomRZq-C-49" value="" style="endArrow=classic;startArrow=classic;html=1;rounded=0;" edge="1" parent="1">
          <mxGeometry width="50" height="50" relative="1" as="geometry">
            <mxPoint x="150" y="629.5" as="sourcePoint" />
            <mxPoint x="220" y="629.5" as="targetPoint" />
          </mxGeometry>
        </mxCell>
        <mxCell id="6FnOU0rwbtTwVomRZq-C-50" value="" style="endArrow=classic;startArrow=classic;html=1;rounded=0;" edge="1" parent="1">
          <mxGeometry width="50" height="50" relative="1" as="geometry">
            <mxPoint x="150" y="650" as="sourcePoint" />
            <mxPoint x="220" y="650" as="targetPoint" />
          </mxGeometry>
        </mxCell>
        <mxCell id="6FnOU0rwbtTwVomRZq-C-51" value="" style="strokeWidth=2;html=1;shape=mxgraph.flowchart.annotation_2;align=left;labelPosition=right;pointerEvents=1;" vertex="1" parent="1">
          <mxGeometry x="220" y="590" width="30" height="60" as="geometry" />
        </mxCell>
        <mxCell id="6FnOU0rwbtTwVomRZq-C-52" value="ID_Agente" style="text;html=1;align=center;verticalAlign=middle;whiteSpace=wrap;rounded=0;" vertex="1" parent="1">
          <mxGeometry x="90" y="570" width="60" height="30" as="geometry" />
        </mxCell>
        <mxCell id="6FnOU0rwbtTwVomRZq-C-53" value="Nome" style="text;html=1;align=center;verticalAlign=middle;whiteSpace=wrap;rounded=0;" vertex="1" parent="1">
          <mxGeometry x="100" y="590" width="60" height="30" as="geometry" />
        </mxCell>
        <mxCell id="6FnOU0rwbtTwVomRZq-C-54" value="Cargo" style="text;html=1;align=center;verticalAlign=middle;whiteSpace=wrap;rounded=0;" vertex="1" parent="1">
          <mxGeometry x="100" y="610" width="60" height="30" as="geometry" />
        </mxCell>
        <mxCell id="6FnOU0rwbtTwVomRZq-C-55" value="Telefone" style="text;html=1;align=center;verticalAlign=middle;whiteSpace=wrap;rounded=0;" vertex="1" parent="1">
          <mxGeometry x="90" y="630" width="60" height="30" as="geometry" />
        </mxCell>
        <mxCell id="6FnOU0rwbtTwVomRZq-C-56" value="Agente" style="text;html=1;align=center;verticalAlign=middle;whiteSpace=wrap;rounded=0;" vertex="1" parent="1">
          <mxGeometry x="280" y="605" width="60" height="30" as="geometry" />
        </mxCell>
        <mxCell id="6FnOU0rwbtTwVomRZq-C-57" value="" style="rounded=0;whiteSpace=wrap;html=1;" vertex="1" parent="1">
          <mxGeometry x="250" y="710" width="120" height="60" as="geometry" />
        </mxCell>
        <mxCell id="6FnOU0rwbtTwVomRZq-C-58" value="" style="endArrow=classic;startArrow=classic;html=1;rounded=0;" edge="1" parent="1">
          <mxGeometry width="50" height="50" relative="1" as="geometry">
            <mxPoint x="150" y="710" as="sourcePoint" />
            <mxPoint x="220" y="710" as="targetPoint" />
          </mxGeometry>
        </mxCell>
        <mxCell id="6FnOU0rwbtTwVomRZq-C-59" value="" style="endArrow=classic;startArrow=classic;html=1;rounded=0;" edge="1" parent="1">
          <mxGeometry width="50" height="50" relative="1" as="geometry">
            <mxPoint x="150" y="730" as="sourcePoint" />
            <mxPoint x="220" y="730" as="targetPoint" />
          </mxGeometry>
        </mxCell>
        <mxCell id="6FnOU0rwbtTwVomRZq-C-60" value="" style="endArrow=classic;startArrow=classic;html=1;rounded=0;" edge="1" parent="1">
          <mxGeometry width="50" height="50" relative="1" as="geometry">
            <mxPoint x="150" y="749.5" as="sourcePoint" />
            <mxPoint x="220" y="749.5" as="targetPoint" />
          </mxGeometry>
        </mxCell>
        <mxCell id="6FnOU0rwbtTwVomRZq-C-61" value="" style="endArrow=classic;startArrow=classic;html=1;rounded=0;" edge="1" parent="1">
          <mxGeometry width="50" height="50" relative="1" as="geometry">
            <mxPoint x="150" y="770" as="sourcePoint" />
            <mxPoint x="220" y="770" as="targetPoint" />
          </mxGeometry>
        </mxCell>
        <mxCell id="6FnOU0rwbtTwVomRZq-C-62" value="" style="strokeWidth=2;html=1;shape=mxgraph.flowchart.annotation_2;align=left;labelPosition=right;pointerEvents=1;" vertex="1" parent="1">
          <mxGeometry x="220" y="710" width="30" height="60" as="geometry" />
        </mxCell>
        <mxCell id="6FnOU0rwbtTwVomRZq-C-63" value="ID_Caso" style="text;html=1;align=center;verticalAlign=middle;whiteSpace=wrap;rounded=0;" vertex="1" parent="1">
          <mxGeometry x="90" y="690" width="60" height="30" as="geometry" />
        </mxCell>
        <mxCell id="6FnOU0rwbtTwVomRZq-C-64" value="Data_Abertura" style="text;html=1;align=center;verticalAlign=middle;whiteSpace=wrap;rounded=0;" vertex="1" parent="1">
          <mxGeometry x="75" y="710" width="60" height="30" as="geometry" />
        </mxCell>
        <mxCell id="6FnOU0rwbtTwVomRZq-C-65" value="Data_Encerramento" style="text;html=1;align=center;verticalAlign=middle;whiteSpace=wrap;rounded=0;" vertex="1" parent="1">
          <mxGeometry x="60" y="730" width="60" height="30" as="geometry" />
        </mxCell>
        <mxCell id="6FnOU0rwbtTwVomRZq-C-66" value="Tipo_Caso" style="text;html=1;align=center;verticalAlign=middle;whiteSpace=wrap;rounded=0;" vertex="1" parent="1">
          <mxGeometry x="80" y="750" width="60" height="30" as="geometry" />
        </mxCell>
        <mxCell id="6FnOU0rwbtTwVomRZq-C-67" value="Caso" style="text;html=1;align=center;verticalAlign=middle;whiteSpace=wrap;rounded=0;" vertex="1" parent="1">
          <mxGeometry x="280" y="725" width="60" height="30" as="geometry" />
        </mxCell>
        <mxCell id="6FnOU0rwbtTwVomRZq-C-68" value="Relação&lt;div&gt;Agente&lt;/div&gt;&lt;div&gt;Denúncia&lt;/div&gt;" style="shape=rhombus;perimeter=rhombusPerimeter;whiteSpace=wrap;html=1;align=center;" vertex="1" parent="1">
          <mxGeometry x="670" y="430" width="140" height="70" as="geometry" />
        </mxCell>
        <mxCell id="6FnOU0rwbtTwVomRZq-C-69" value="" style="endArrow=none;html=1;rounded=0;entryX=0.347;entryY=0.835;entryDx=0;entryDy=0;entryPerimeter=0;" edge="1" parent="1" target="6FnOU0rwbtTwVomRZq-C-68">
          <mxGeometry relative="1" as="geometry">
            <mxPoint x="370" y="620" as="sourcePoint" />
            <mxPoint x="530" y="620" as="targetPoint" />
          </mxGeometry>
        </mxCell>
        <mxCell id="6FnOU0rwbtTwVomRZq-C-70" value="" style="endArrow=none;html=1;rounded=0;" edge="1" parent="1" target="6FnOU0rwbtTwVomRZq-C-68">
          <mxGeometry relative="1" as="geometry">
            <mxPoint x="370" y="160" as="sourcePoint" />
            <mxPoint x="530" y="160" as="targetPoint" />
          </mxGeometry>
        </mxCell>
        <mxCell id="6FnOU0rwbtTwVomRZq-C-71" value="Relação&lt;div&gt;Suspeito&lt;/div&gt;&lt;div&gt;Denúncia&lt;/div&gt;" style="shape=rhombus;perimeter=rhombusPerimeter;whiteSpace=wrap;html=1;align=center;" vertex="1" parent="1">
          <mxGeometry x="670" y="300" width="140" height="70" as="geometry" />
        </mxCell>
        <mxCell id="6FnOU0rwbtTwVomRZq-C-72" value="" style="endArrow=none;html=1;rounded=0;" edge="1" parent="1" target="6FnOU0rwbtTwVomRZq-C-71">
          <mxGeometry relative="1" as="geometry">
            <mxPoint x="370" y="160" as="sourcePoint" />
            <mxPoint x="530" y="160" as="targetPoint" />
          </mxGeometry>
        </mxCell>
        <mxCell id="6FnOU0rwbtTwVomRZq-C-73" value="" style="endArrow=none;html=1;rounded=0;entryX=0;entryY=1;entryDx=0;entryDy=0;" edge="1" parent="1" target="6FnOU0rwbtTwVomRZq-C-71">
          <mxGeometry relative="1" as="geometry">
            <mxPoint x="370" y="460" as="sourcePoint" />
            <mxPoint x="530" y="460" as="targetPoint" />
          </mxGeometry>
        </mxCell>
        <mxCell id="6FnOU0rwbtTwVomRZq-C-74" value="Relação&lt;div&gt;Denúncia&lt;/div&gt;&lt;div&gt;Denunciante&lt;/div&gt;" style="shape=rhombus;perimeter=rhombusPerimeter;whiteSpace=wrap;html=1;align=center;" vertex="1" parent="1">
          <mxGeometry x="665" y="130" width="150" height="75" as="geometry" />
        </mxCell>
        <mxCell id="6FnOU0rwbtTwVomRZq-C-75" value="" style="endArrow=none;html=1;rounded=0;entryX=0;entryY=0.5;entryDx=0;entryDy=0;" edge="1" parent="1" target="6FnOU0rwbtTwVomRZq-C-74">
          <mxGeometry relative="1" as="geometry">
            <mxPoint x="370" y="160" as="sourcePoint" />
            <mxPoint x="530" y="160" as="targetPoint" />
          </mxGeometry>
        </mxCell>
        <mxCell id="6FnOU0rwbtTwVomRZq-C-76" value="" style="endArrow=none;html=1;rounded=0;entryX=0.327;entryY=0.871;entryDx=0;entryDy=0;entryPerimeter=0;" edge="1" parent="1" target="6FnOU0rwbtTwVomRZq-C-74">
          <mxGeometry relative="1" as="geometry">
            <mxPoint x="370" y="310" as="sourcePoint" />
            <mxPoint x="530" y="310" as="targetPoint" />
          </mxGeometry>
        </mxCell>
        <mxCell id="6FnOU0rwbtTwVomRZq-C-77" value="Relação&lt;div&gt;Caso&lt;/div&gt;&lt;div&gt;Denúncia&lt;/div&gt;" style="shape=rhombus;perimeter=rhombusPerimeter;whiteSpace=wrap;html=1;align=center;" vertex="1" parent="1">
          <mxGeometry x="665" y="582.5" width="150" height="75" as="geometry" />
        </mxCell>
        <mxCell id="6FnOU0rwbtTwVomRZq-C-78" value="" style="endArrow=none;html=1;rounded=0;entryX=0.388;entryY=0.898;entryDx=0;entryDy=0;entryPerimeter=0;" edge="1" parent="1" target="6FnOU0rwbtTwVomRZq-C-77">
          <mxGeometry relative="1" as="geometry">
            <mxPoint x="370" y="740" as="sourcePoint" />
            <mxPoint x="530" y="740" as="targetPoint" />
          </mxGeometry>
        </mxCell>
        <mxCell id="6FnOU0rwbtTwVomRZq-C-79" value="" style="endArrow=none;html=1;rounded=0;" edge="1" parent="1" target="6FnOU0rwbtTwVomRZq-C-77">
          <mxGeometry relative="1" as="geometry">
            <mxPoint x="370" y="160" as="sourcePoint" />
            <mxPoint x="530" y="160" as="targetPoint" />
          </mxGeometry>
        </mxCell>
        <mxCell id="6FnOU0rwbtTwVomRZq-C-80" value="Relação&lt;div&gt;Caso&lt;/div&gt;&lt;div&gt;Agente&lt;/div&gt;" style="shape=rhombus;perimeter=rhombusPerimeter;whiteSpace=wrap;html=1;align=center;" vertex="1" parent="1">
          <mxGeometry x="685" y="735" width="120" height="60" as="geometry" />
        </mxCell>
        <mxCell id="6FnOU0rwbtTwVomRZq-C-81" value="" style="endArrow=none;html=1;rounded=0;entryX=0;entryY=0.5;entryDx=0;entryDy=0;" edge="1" parent="1" target="6FnOU0rwbtTwVomRZq-C-80">
          <mxGeometry relative="1" as="geometry">
            <mxPoint x="370" y="740" as="sourcePoint" />
            <mxPoint x="530" y="740" as="targetPoint" />
          </mxGeometry>
        </mxCell>
        <mxCell id="6FnOU0rwbtTwVomRZq-C-82" value="" style="endArrow=none;html=1;rounded=0;" edge="1" parent="1">
          <mxGeometry relative="1" as="geometry">
            <mxPoint x="410" y="597" as="sourcePoint" />
            <mxPoint x="747" y="735" as="targetPoint" />
          </mxGeometry>
        </mxCell>
      </root>
    </mxGraphModel>
  </diagram>
</mxfile>
